<?xml version="1.0" encoding="utf-8"?>
<!-- Generator: Adobe Illustrator 18.0.0, SVG Export Plug-In . SVG Version: 6.00 Build 0)  -->
<!DOCTYPE svg PUBLIC "-//W3C//DTD SVG 1.1//EN" "http://www.w3.org/Graphics/SVG/1.1/DTD/svg11.dtd">
<svg version="1.1" id="Layer_1" xmlns="http://www.w3.org/2000/svg" xmlns:xlink="http://www.w3.org/1999/xlink" x="0px" y="0px"
	 viewBox="0 0 288 288" enable-background="new 0 0 288 288" xml:space="preserve">
<rect x="0.1" y="31.8" fill="#FFFFFF" width="286.9" height="172.2"/>
<rect x="0" y="64.9" fill="#D7D7D8" width="286.8" height="139.3"/>
<rect x="0.1" y="0" fill="#D7D7D8" width="286.9" height="31.8"/>
<circle fill="#AAACB2" cx="255.2" cy="8" r="4"/>
<circle fill="#8CC97F" cx="267.1" cy="8" r="4"/>
<circle fill="#47B667" cx="279.1" cy="8" r="4"/>
<rect x="4.1" y="15.9" fill="#AAACB2" width="23.9" height="11.9"/>
<rect x="32" y="15.9" fill="#EFEDED" width="235.2" height="11.9"/>
<rect x="271.1" y="15.9" fill="#AAACB2" width="11.9" height="11.9"/>
<g>
	<path fill="#D7D7D8" d="M13.6,57.4h13.9l0-5h5l-5,5h5V38.5L13.6,57.4z M22.6,56.6V53l3.4,0L22.6,56.6z M28.1,51v-3.6l3.4,0L28.1,51
		z"/>
</g>
<g>
	<path fill="#D7D7D8" d="M40.9,56.5v-6.7h3c0.3,0,0.6,0.1,0.9,0.2c0.3,0.1,0.5,0.3,0.7,0.5c0.2,0.2,0.3,0.5,0.4,0.7
		c0.1,0.3,0.2,0.5,0.2,0.8c0,0.4-0.1,0.8-0.3,1.2s-0.5,0.6-0.9,0.8l1.6,2.5h-1.5l-1.4-2.3h-1.3v2.3H40.9z M42.2,53.1h1.6
		c0.1,0,0.2,0,0.3-0.1c0.1-0.1,0.2-0.1,0.3-0.2s0.1-0.2,0.2-0.3c0-0.1,0.1-0.3,0.1-0.4c0-0.2,0-0.3-0.1-0.4
		c-0.1-0.1-0.1-0.2-0.2-0.3c-0.1-0.1-0.2-0.2-0.3-0.2c-0.1-0.1-0.2-0.1-0.3-0.1h-1.6V53.1z"/>
	<path fill="#D7D7D8" d="M47.1,50.8v-1.3h1.3v1.3H47.1z M47.1,56.5v-5h1.3v5H47.1z"/>
	<path fill="#D7D7D8" d="M51.4,56.6c-0.2,0-0.4,0-0.6,0c-0.2,0-0.4-0.1-0.6-0.1c-0.2-0.1-0.4-0.1-0.6-0.2c-0.2-0.1-0.4-0.2-0.5-0.3
		l0.5-0.9c0.6,0.4,1.2,0.6,1.8,0.6c0.3,0,0.5,0,0.6-0.1c0.2-0.1,0.2-0.2,0.2-0.4c0-0.2-0.1-0.3-0.3-0.4c-0.2-0.1-0.5-0.2-0.9-0.3
		c-0.3-0.1-0.6-0.2-0.8-0.2c-0.2-0.1-0.4-0.2-0.6-0.3c-0.1-0.1-0.2-0.2-0.3-0.4c-0.1-0.1-0.1-0.3-0.1-0.5c0-0.3,0.1-0.5,0.2-0.7
		c0.1-0.2,0.2-0.4,0.4-0.5c0.2-0.1,0.4-0.3,0.6-0.3c0.2-0.1,0.5-0.1,0.8-0.1c0.4,0,0.7,0.1,1.1,0.2c0.4,0.1,0.7,0.3,1,0.5l-0.5,0.8
		c-0.3-0.2-0.5-0.3-0.8-0.4c-0.2-0.1-0.5-0.1-0.7-0.1c-0.2,0-0.4,0-0.6,0.1c-0.2,0.1-0.2,0.2-0.2,0.4c0,0.2,0.1,0.3,0.2,0.4
		c0.1,0.1,0.4,0.2,0.8,0.3c0.4,0.1,0.7,0.2,0.9,0.3c0.2,0.1,0.5,0.2,0.6,0.3c0.2,0.1,0.3,0.2,0.4,0.4c0.1,0.1,0.1,0.3,0.1,0.5
		c0,0.2,0,0.5-0.1,0.7c-0.1,0.2-0.2,0.4-0.4,0.5c-0.2,0.1-0.4,0.2-0.6,0.3C52,56.5,51.7,56.6,51.4,56.6z"/>
	<path fill="#D7D7D8" d="M56.6,56.6c-0.4,0-0.8-0.1-1.1-0.2c-0.3-0.1-0.6-0.3-0.8-0.6c-0.2-0.2-0.4-0.5-0.5-0.8
		C54,54.7,54,54.4,54,54c0-0.4,0.1-0.7,0.2-1c0.1-0.3,0.3-0.6,0.5-0.8c0.2-0.2,0.5-0.4,0.8-0.6c0.3-0.1,0.7-0.2,1.1-0.2
		c0.4,0,0.8,0.1,1.1,0.2c0.3,0.1,0.6,0.3,0.8,0.6c0.2,0.2,0.4,0.5,0.5,0.8c0.1,0.3,0.2,0.6,0.2,1c0,0.1,0,0.2,0,0.2
		c0,0.1,0,0.1,0,0.2h-3.8c0,0.2,0.1,0.4,0.1,0.5c0.1,0.2,0.2,0.3,0.3,0.4c0.1,0.1,0.3,0.2,0.4,0.2c0.2,0.1,0.3,0.1,0.5,0.1
		c0.3,0,0.5-0.1,0.7-0.2c0.2-0.1,0.4-0.3,0.5-0.5l1.1,0.3c-0.2,0.4-0.5,0.7-0.9,0.9C57.6,56.5,57.2,56.6,56.6,56.6z M57.9,53.6
		c0-0.4-0.2-0.7-0.4-0.9c-0.2-0.2-0.5-0.3-0.9-0.3c-0.2,0-0.3,0-0.5,0.1c-0.1,0.1-0.3,0.1-0.4,0.3c-0.1,0.1-0.2,0.2-0.3,0.4
		c-0.1,0.2-0.1,0.3-0.1,0.5H57.9z"/>
	<path fill="#D7D7D8" d="M62.7,49.7l1.8,5.1l1.8-5.1h1.4l-2.6,6.7H64l-2.6-6.7H62.7z"/>
	<path fill="#D7D7D8" d="M68.3,50.8v-1.3h1.3v1.3H68.3z M68.3,56.5v-5h1.3v5H68.3z"/>
	<path fill="#D7D7D8" d="M72.7,56.6c-0.2,0-0.4,0-0.6,0c-0.2,0-0.4-0.1-0.6-0.1c-0.2-0.1-0.4-0.1-0.6-0.2c-0.2-0.1-0.4-0.2-0.5-0.3
		l0.5-0.9c0.6,0.4,1.2,0.6,1.8,0.6c0.3,0,0.5,0,0.6-0.1c0.2-0.1,0.2-0.2,0.2-0.4c0-0.2-0.1-0.3-0.3-0.4c-0.2-0.1-0.5-0.2-0.9-0.3
		c-0.3-0.1-0.6-0.2-0.8-0.2c-0.2-0.1-0.4-0.2-0.6-0.3c-0.1-0.1-0.2-0.2-0.3-0.4c-0.1-0.1-0.1-0.3-0.1-0.5c0-0.3,0.1-0.5,0.2-0.7
		c0.1-0.2,0.2-0.4,0.4-0.5c0.2-0.1,0.4-0.3,0.6-0.3c0.2-0.1,0.5-0.1,0.8-0.1c0.4,0,0.7,0.1,1.1,0.2c0.4,0.1,0.7,0.3,1,0.5l-0.5,0.8
		c-0.3-0.2-0.5-0.3-0.8-0.4c-0.2-0.1-0.5-0.1-0.7-0.1c-0.2,0-0.4,0-0.6,0.1c-0.2,0.1-0.2,0.2-0.2,0.4c0,0.2,0.1,0.3,0.2,0.4
		c0.1,0.1,0.4,0.2,0.8,0.3c0.4,0.1,0.7,0.2,0.9,0.3c0.2,0.1,0.5,0.2,0.6,0.3c0.2,0.1,0.3,0.2,0.4,0.4c0.1,0.1,0.1,0.3,0.1,0.5
		c0,0.2,0,0.5-0.1,0.7c-0.1,0.2-0.2,0.4-0.4,0.5c-0.2,0.1-0.4,0.2-0.7,0.3C73.3,56.5,73,56.6,72.7,56.6z"/>
	<path fill="#D7D7D8" d="M75.5,50.8v-1.3h1.3v1.3H75.5z M75.5,56.5v-5h1.3v5H75.5z"/>
	<path fill="#D7D7D8" d="M80.2,56.6c-0.4,0-0.8-0.1-1.1-0.2c-0.3-0.1-0.6-0.3-0.8-0.6c-0.2-0.2-0.4-0.5-0.5-0.8
		c-0.1-0.3-0.2-0.6-0.2-1c0-0.3,0.1-0.7,0.2-1c0.1-0.3,0.3-0.6,0.5-0.8c0.2-0.2,0.5-0.4,0.8-0.6c0.3-0.1,0.7-0.2,1.1-0.2
		s0.8,0.1,1.1,0.2c0.3,0.1,0.6,0.3,0.8,0.6c0.2,0.2,0.4,0.5,0.5,0.8c0.1,0.3,0.2,0.6,0.2,1c0,0.3-0.1,0.7-0.2,1
		c-0.1,0.3-0.3,0.6-0.5,0.8c-0.2,0.2-0.5,0.4-0.8,0.6C81,56.5,80.6,56.6,80.2,56.6z M78.9,54c0,0.2,0,0.4,0.1,0.6
		c0.1,0.2,0.2,0.3,0.3,0.5c0.1,0.1,0.3,0.2,0.4,0.3c0.2,0.1,0.3,0.1,0.5,0.1s0.4,0,0.5-0.1c0.2-0.1,0.3-0.2,0.4-0.3
		c0.1-0.1,0.2-0.3,0.3-0.5c0.1-0.2,0.1-0.4,0.1-0.6c0-0.2,0-0.4-0.1-0.6c-0.1-0.2-0.2-0.3-0.3-0.5c-0.1-0.1-0.3-0.2-0.4-0.3
		c-0.2-0.1-0.3-0.1-0.5-0.1s-0.4,0-0.5,0.1c-0.2,0.1-0.3,0.2-0.4,0.3c-0.1,0.1-0.2,0.3-0.3,0.5C79,53.6,78.9,53.8,78.9,54z"/>
	<path fill="#D7D7D8" d="M88.3,56.5H87v-2.8c0-0.4-0.1-0.7-0.2-0.9c-0.1-0.2-0.3-0.3-0.6-0.3c-0.1,0-0.3,0-0.4,0.1
		c-0.1,0.1-0.3,0.1-0.4,0.2c-0.1,0.1-0.2,0.2-0.3,0.3c-0.1,0.1-0.2,0.3-0.2,0.4v2.9h-1.3v-5h1.1v0.9c0.2-0.3,0.4-0.6,0.8-0.7
		c0.3-0.2,0.7-0.3,1.2-0.3c0.3,0,0.6,0.1,0.8,0.2s0.3,0.3,0.5,0.4c0.1,0.2,0.2,0.4,0.2,0.6c0,0.2,0.1,0.5,0.1,0.7V56.5z"/>
</g>
<polygon fill="#D7D7D8" points="264.9,42.2 264.9,55.5 278.2,48.9 "/>
<g>
	<path fill="#D7D7D8" d="M253.4,55.9c-4,0-7.9,0-11.9,0c-0.4-0.4-0.9-0.9-1.3-1.3c0-4,0-7.9,0-11.9c0.4-0.4,0.9-0.9,1.3-1.3
		c3.4,0,6.8,0,10.2,0c1,1,2,2,3,3c0,3.4,0,6.8,0,10.2C254.2,55.1,253.8,55.5,253.4,55.9z M247.3,55.3c1.6,0,3.1,0,4.7,0
		c0.9,0,1-0.1,1-0.9c0-1.6,0-3.3,0-4.9c0-0.6-0.2-0.9-0.9-0.9c-3.1,0-6.3,0-9.4,0c-0.7,0-0.9,0.3-0.9,0.9c0,1.6,0,3.3,0,4.9
		c0,0.8,0.1,0.9,1,0.9C244.3,55.4,245.8,55.3,247.3,55.3z M247.1,47c1.1,0,2.3,0,3.4,0c0.5,0,0.8-0.2,0.8-0.7c0-1.2,0-2.4,0-3.5
		c0-0.5-0.3-0.7-0.8-0.7c-2.3,0-4.5,0-6.8,0c-0.6,0-0.8,0.3-0.8,0.8c0,1.1,0,2.2,0,3.3c0,0.6,0.2,0.9,0.9,0.9
		C244.9,47,246,47,247.1,47z"/>
	<path fill="#D7D7D8" d="M248.6,42.6c0.5,0,1,0,1.5,0c0,1.3,0,2.5,0,3.8c-0.5,0-1,0-1.5,0C248.6,45.1,248.6,43.9,248.6,42.6z"/>
</g>
</svg>
